<svg width="26" height="38" viewBox="0 0 26 38" fill="none" xmlns="http://www.w3.org/2000/svg">
<path d="M0.219727 29.3043L2.63907 27.8854C3.90331 32.3057 7.64145 35.3071 13.6898 35.3071C19.8473 35.3071 22.9488 32.1511 22.9488 27.94C22.9488 23.5197 19.056 21.837 13.4261 20.0453C7.26856 18.0443 1.74772 16.3071 1.74772 9.89497C1.74772 3.84662 6.64097 0.00842285 12.8985 0.00842285C18.9469 0.00842285 22.9488 3.48281 24.7315 7.73939L22.3667 9.05821C21.0024 5.74753 18.1556 2.69152 12.8985 2.69152C7.79607 2.69152 4.58546 5.69296 4.58546 9.79492C4.58546 14.2152 8.3236 15.5795 13.5807 17.3167C20.102 19.4723 25.7865 21.5278 25.7865 27.8945C25.7865 33.9974 21.0024 37.9993 13.6898 37.9993C6.79559 37.9811 1.90235 34.5158 0.219727 29.3043Z" fill="#58595B"/>
</svg>
